<?xml version="1.0" encoding="UTF-8" standalone="no"?>
<!DOCTYPE svg PUBLIC "-//W3C//DTD SVG 1.1//EN"
 "http://www.w3.org/Graphics/SVG/1.1/DTD/svg11.dtd">
<!-- Generated by graphviz version 2.43.0 (0)
 -->
<!-- Title: %3 Pages: 1 -->
<svg width="711pt" height="573pt"
 viewBox="0.00 0.00 711.00 573.00" xmlns="http://www.w3.org/2000/svg" xmlns:xlink="http://www.w3.org/1999/xlink">
<g id="graph0" class="graph" transform="scale(1 1) rotate(0) translate(4 569)">
<title>%3</title>
<polygon fill="white" stroke="transparent" points="-4,4 -4,-569 707,-569 707,4 -4,4"/>
<!-- A -->
<g id="node1" class="node">
<title>A</title>
<image xlink:href="router.png" width="43px" height="43px" preserveAspectRatio="xMinYMin meet" x="660" y="-331"/>
<text text-anchor="middle" x="654" y="-336.2" font-family="Times,serif" font-size="16.00" fill="red">A</text>
</g>
<!-- B -->
<g id="node2" class="node">
<title>B</title>
<image xlink:href="router.png" width="43px" height="43px" preserveAspectRatio="xMinYMin meet" x="444" y="-547"/>
<text text-anchor="middle" x="437.5" y="-552.2" font-family="Times,serif" font-size="16.00" fill="red">B</text>
</g>
<!-- A&#45;&#45;B -->
<g id="edge1" class="edge">
<title>A&#45;&#45;B</title>
<path fill="none" stroke="black" d="M660,-331C618.7,-372.3 528.71,-462.29 487.23,-503.77"/>
<text text-anchor="middle" x="570.12" y="-420.38" font-family="Times,serif" font-size="10.00" fill="blue">1</text>
</g>
<!-- C -->
<g id="node3" class="node">
<title>C</title>
<image xlink:href="router.png" width="43px" height="43px" preserveAspectRatio="xMinYMin meet" x="444" y="-259"/>
<text text-anchor="middle" x="437.5" y="-264.2" font-family="Times,serif" font-size="16.00" fill="red">C</text>
</g>
<!-- A&#45;&#45;C -->
<g id="edge2" class="edge">
<title>A&#45;&#45;C</title>
<path fill="none" stroke="black" d="M660,-302.33C618.7,-288.57 528.71,-258.57 487.23,-244.74"/>
<text text-anchor="middle" x="570.12" y="-276.54" font-family="Times,serif" font-size="10.00" fill="blue">4</text>
</g>
<!-- B&#45;&#45;C -->
<g id="edge3" class="edge">
<title>B&#45;&#45;C</title>
<path fill="none" stroke="black" d="M465.5,-503.85C465.5,-450.35 465.5,-312.36 465.5,-259.01"/>
<text text-anchor="middle" x="462" y="-384.43" font-family="Times,serif" font-size="10.00" fill="blue">2</text>
</g>
<!-- D -->
<g id="node4" class="node">
<title>D</title>
<image xlink:href="router.png" width="43px" height="43px" preserveAspectRatio="xMinYMin meet" x="228" y="-259"/>
<text text-anchor="middle" x="221.5" y="-264.2" font-family="Times,serif" font-size="16.00" fill="red">D</text>
</g>
<!-- B&#45;&#45;D -->
<g id="edge4" class="edge">
<title>B&#45;&#45;D</title>
<path fill="none" stroke="black" d="M449.26,-503.85C409.14,-450.35 305.64,-312.36 265.63,-259.01"/>
<text text-anchor="middle" x="353.95" y="-384.43" font-family="Times,serif" font-size="10.00" fill="blue">9</text>
</g>
<!-- G -->
<g id="node7" class="node">
<title>G</title>
<image xlink:href="router.png" width="43px" height="43px" preserveAspectRatio="xMinYMin meet" x="84" y="-403"/>
<text text-anchor="middle" x="77.5" y="-408.2" font-family="Times,serif" font-size="16.00" fill="red">G</text>
</g>
<!-- B&#45;&#45;G -->
<g id="edge5" class="edge">
<title>B&#45;&#45;G</title>
<path fill="none" stroke="black" d="M443.79,-516.82C379.64,-491.16 191.42,-415.87 127.24,-390.19"/>
<text text-anchor="middle" x="282.01" y="-456.51" font-family="Times,serif" font-size="10.00" fill="blue">4</text>
</g>
<!-- H -->
<g id="node8" class="node">
<title>H</title>
<image xlink:href="router.png" width="43px" height="43px" preserveAspectRatio="xMinYMin meet" x="228" y="-547"/>
<text text-anchor="middle" x="220.5" y="-552.2" font-family="Times,serif" font-size="16.00" fill="red">H</text>
</g>
<!-- B&#45;&#45;H -->
<g id="edge6" class="edge">
<title>B&#45;&#45;H</title>
<path fill="none" stroke="black" d="M444,-525.5C402.7,-525.5 312.71,-525.5 271.23,-525.5"/>
<text text-anchor="middle" x="354.12" y="-528.5" font-family="Times,serif" font-size="10.00" fill="blue">2</text>
</g>
<!-- C&#45;&#45;D -->
<g id="edge7" class="edge">
<title>C&#45;&#45;D</title>
<path fill="none" stroke="black" d="M444,-237.5C402.7,-237.5 312.71,-237.5 271.23,-237.5"/>
<text text-anchor="middle" x="354.12" y="-240.5" font-family="Times,serif" font-size="10.00" fill="blue">1</text>
</g>
<!-- E -->
<g id="node5" class="node">
<title>E</title>
<image xlink:href="router.png" width="43px" height="43px" preserveAspectRatio="xMinYMin meet" x="300" y="-43"/>
<text text-anchor="middle" x="293.5" y="-48.2" font-family="Times,serif" font-size="16.00" fill="red">E</text>
</g>
<!-- C&#45;&#45;E -->
<g id="edge8" class="edge">
<title>C&#45;&#45;E</title>
<path fill="none" stroke="black" d="M451.17,-216C423.64,-174.7 363.64,-84.71 335.99,-43.23"/>
<text text-anchor="middle" x="390.08" y="-132.62" font-family="Times,serif" font-size="10.00" fill="blue">3</text>
</g>
<!-- D&#45;&#45;E -->
<g id="edge9" class="edge">
<title>D&#45;&#45;E</title>
<path fill="none" stroke="black" d="M256.67,-216C270.43,-174.7 300.43,-84.71 314.26,-43.23"/>
<text text-anchor="middle" x="281.96" y="-132.62" font-family="Times,serif" font-size="10.00" fill="blue">1</text>
</g>
<!-- F -->
<g id="node6" class="node">
<title>F</title>
<image xlink:href="router.png" width="43px" height="43px" preserveAspectRatio="xMinYMin meet" x="12" y="-187"/>
<text text-anchor="middle" x="6" y="-192.2" font-family="Times,serif" font-size="16.00" fill="red">F</text>
</g>
<!-- D&#45;&#45;F -->
<g id="edge10" class="edge">
<title>D&#45;&#45;F</title>
<path fill="none" stroke="black" d="M228,-230.33C186.7,-216.57 96.71,-186.57 55.23,-172.74"/>
<text text-anchor="middle" x="138.12" y="-204.54" font-family="Times,serif" font-size="10.00" fill="blue">3</text>
</g>
<!-- D&#45;&#45;G -->
<g id="edge11" class="edge">
<title>D&#45;&#45;G</title>
<path fill="none" stroke="black" d="M227.94,-259.06C200.79,-286.21 154.42,-332.58 127.21,-359.79"/>
<text text-anchor="middle" x="174.07" y="-312.43" font-family="Times,serif" font-size="10.00" fill="blue">1</text>
</g>
<!-- E&#45;&#45;F -->
<g id="edge12" class="edge">
<title>E&#45;&#45;F</title>
<path fill="none" stroke="black" d="M299.85,-32.32C246.35,-59.08 108.36,-128.07 55.01,-154.75"/>
<text text-anchor="middle" x="173.93" y="-96.54" font-family="Times,serif" font-size="10.00" fill="blue">1</text>
</g>
<!-- F&#45;&#45;G -->
<g id="edge13" class="edge">
<title>F&#45;&#45;G</title>
<path fill="none" stroke="black" d="M40.67,-187C54.43,-228.3 84.43,-318.29 98.26,-359.77"/>
<text text-anchor="middle" x="65.96" y="-276.38" font-family="Times,serif" font-size="10.00" fill="blue">6</text>
</g>
<!-- G&#45;&#45;H -->
<g id="edge14" class="edge">
<title>G&#45;&#45;H</title>
<path fill="none" stroke="black" d="M127.06,-403.06C154.21,-430.21 200.58,-476.58 227.79,-503.79"/>
<text text-anchor="middle" x="170.93" y="-456.43" font-family="Times,serif" font-size="10.00" fill="blue">14</text>
</g>
</g>
</svg>
